<svg width="45" height="45" viewBox="0 0 45 45" fill="none" xmlns="http://www.w3.org/2000/svg">
<g clip-path="url(#clip0_4_30)">
<path d="M35.023 22.4811C35.023 15.5232 29.3825 9.88265 22.4245 9.88265C15.4666 9.88265 9.82605 15.5232 9.82605 22.4811V35.0419H35.023V22.4811ZM22.3616 17.8416C19.8033 17.8416 17.7221 19.9228 17.7221 22.4811C17.7221 23.1062 17.2156 23.6127 16.5905 23.6127C15.9654 23.6127 15.4589 23.1062 15.4589 22.4811C15.4589 18.6749 18.5554 15.5784 22.3616 15.5784C22.9867 15.5784 23.4932 16.0849 23.4932 16.71C23.4932 17.3351 22.9867 17.8416 22.3616 17.8416Z" fill="#DC5B5B"/>
<path d="M37.5927 37.3051H7.5202C5.48392 37.3051 3.79089 39.6582 3.79089 41.6953V45H41.2092V41.6953C41.2092 39.6582 39.6287 37.3051 37.5927 37.3051Z" fill="#DC5B5B"/>
<path d="M22.4246 7.54401C23.0497 7.54401 23.5562 7.0375 23.5562 6.41241V1.1316C23.5562 0.506505 23.0497 0 22.4246 0C21.7995 0 21.293 0.506505 21.293 1.1316V6.41241C21.293 7.0375 21.7995 7.54401 22.4246 7.54401Z" fill="#DC5B5B"/>
<path d="M13.5519 9.11995C13.7616 9.48297 14.1418 9.6859 14.5329 9.6859C14.7248 9.6859 14.9196 9.63702 15.0977 9.53412C15.6389 9.22164 15.8243 8.52956 15.5118 7.98835L12.8714 3.41502C12.559 2.87381 11.8666 2.68838 11.3257 3.00085C10.7845 3.31333 10.599 4.00542 10.9115 4.54662L13.5519 9.11995Z" fill="#DC5B5B"/>
<path d="M3.58507 12.7201L8.15839 15.3605C8.33673 15.4634 8.53122 15.5123 8.72314 15.5123C9.11422 15.5123 9.49459 15.3094 9.70416 14.9463C10.0166 14.4051 9.8312 13.713 9.29 13.4006L4.71667 10.7602C4.17501 10.4478 3.48322 10.633 3.1709 11.1743C2.85828 11.7154 3.04386 12.4075 3.58507 12.7201Z" fill="#DC5B5B"/>
<path d="M29.9023 9.53412C30.0807 9.63702 30.2752 9.6859 30.4671 9.6859C30.8582 9.6859 31.2385 9.48297 31.4481 9.11995L34.0885 4.54662C34.401 4.00542 34.2155 3.31333 33.6743 3.00086C33.1328 2.68838 32.4407 2.87366 32.1286 3.41502L29.4882 7.98835C29.1755 8.52956 29.3611 9.22164 29.9023 9.53412Z" fill="#DC5B5B"/>
<path d="M36.277 15.5123C36.469 15.5123 36.6637 15.4634 36.8418 15.3605L41.4151 12.7201C41.9563 12.4076 42.1417 11.7155 41.8293 11.1743C41.5167 10.633 40.8244 10.4478 40.2835 10.7602L35.7102 13.4006C35.169 13.713 34.9835 14.4051 35.296 14.9463C35.5056 15.3094 35.886 15.5123 36.277 15.5123Z" fill="#DC5B5B"/>
</g>
<defs>
<clipPath id="clip0_4_30">
<rect width="45" height="45" fill="white"/>
</clipPath>
</defs>
</svg>
