<svg width="51" height="51" viewBox="0 0 51 51" fill="none" xmlns="http://www.w3.org/2000/svg">
<path d="M6.375 19.125H44.625M14.875 6.375V10.625M36.125 6.375V10.625M13.175 44.625H37.825C40.2052 44.625 41.3954 44.625 42.3045 44.1618C43.1041 43.7544 43.7544 43.1041 44.1618 42.3045C44.625 41.3954 44.625 40.2052 44.625 37.825V17.425C44.625 15.0448 44.625 13.8547 44.1618 12.9455C43.7544 12.1458 43.1041 11.4957 42.3045 11.0882C41.3954 10.625 40.2052 10.625 37.825 10.625H13.175C10.7948 10.625 9.60466 10.625 8.69554 11.0882C7.89584 11.4957 7.24568 12.1458 6.83823 12.9455C6.375 13.8547 6.375 15.0448 6.375 17.425V37.825C6.375 40.2052 6.375 41.3954 6.83823 42.3045C7.24568 43.1041 7.89584 43.7544 8.69554 44.1618C9.60466 44.625 10.7948 44.625 13.175 44.625Z" stroke="#A6A7A7" stroke-width="3" stroke-linecap="round"/>
<path d="M21.155 37C21.045 37 20.955 36.965 20.885 36.895C20.825 36.825 20.795 36.74 20.795 36.64V28.87L18.515 30.625C18.425 30.685 18.335 30.71 18.245 30.7C18.155 30.68 18.075 30.625 18.005 30.535L17.375 29.725C17.315 29.635 17.29 29.54 17.3 29.44C17.32 29.34 17.375 29.26 17.465 29.2L20.825 26.605C20.885 26.555 20.945 26.525 21.005 26.515C21.065 26.505 21.13 26.5 21.2 26.5H22.52C22.62 26.5 22.705 26.535 22.775 26.605C22.845 26.675 22.88 26.76 22.88 26.86V36.64C22.88 36.74 22.845 36.825 22.775 36.895C22.705 36.965 22.62 37 22.52 37H21.155ZM28.8634 37.15C28.1534 37.15 27.5484 37.045 27.0484 36.835C26.5484 36.625 26.1384 36.335 25.8184 35.965C25.4984 35.595 25.2584 35.17 25.0984 34.69C24.9384 34.2 24.8434 33.68 24.8134 33.13C24.8034 32.86 24.7934 32.565 24.7834 32.245C24.7834 31.915 24.7834 31.585 24.7834 31.255C24.7934 30.925 24.8034 30.62 24.8134 30.34C24.8334 29.79 24.9284 29.275 25.0984 28.795C25.2684 28.305 25.5134 27.88 25.8334 27.52C26.1634 27.16 26.5784 26.875 27.0784 26.665C27.5784 26.455 28.1734 26.35 28.8634 26.35C29.5634 26.35 30.1634 26.455 30.6634 26.665C31.1634 26.875 31.5734 27.16 31.8934 27.52C32.2234 27.88 32.4684 28.305 32.6284 28.795C32.7984 29.275 32.8934 29.79 32.9134 30.34C32.9334 30.62 32.9434 30.925 32.9434 31.255C32.9434 31.585 32.9434 31.915 32.9434 32.245C32.9434 32.565 32.9334 32.86 32.9134 33.13C32.8934 33.68 32.8034 34.2 32.6434 34.69C32.4834 35.17 32.2434 35.595 31.9234 35.965C31.6034 36.335 31.1884 36.625 30.6784 36.835C30.1784 37.045 29.5734 37.15 28.8634 37.15ZM28.8634 35.425C29.5134 35.425 29.9884 35.215 30.2884 34.795C30.5984 34.365 30.7584 33.785 30.7684 33.055C30.7884 32.765 30.7984 32.475 30.7984 32.185C30.7984 31.885 30.7984 31.585 30.7984 31.285C30.7984 30.985 30.7884 30.7 30.7684 30.43C30.7584 29.72 30.5984 29.15 30.2884 28.72C29.9884 28.28 29.5134 28.06 28.8634 28.06C28.2234 28.06 27.7484 28.28 27.4384 28.72C27.1384 29.15 26.9784 29.72 26.9584 30.43C26.9584 30.7 26.9534 30.985 26.9434 31.285C26.9434 31.585 26.9434 31.885 26.9434 32.185C26.9534 32.475 26.9584 32.765 26.9584 33.055C26.9784 33.785 27.1434 34.365 27.4534 34.795C27.7634 35.215 28.2334 35.425 28.8634 35.425Z" fill="#A6A7A7"/>
</svg>
