<svg width="47" height="47" viewBox="0 0 47 47" fill="none" xmlns="http://www.w3.org/2000/svg">
<path fill-rule="evenodd" clip-rule="evenodd" d="M18.1986 2.53191C18.5658 2.16466 19.0639 1.95833 19.5833 1.95833H35.25C38.4948 1.95833 41.125 4.58867 41.125 7.83333V39.1667C41.125 42.4114 38.4948 45.0417 35.25 45.0417H11.75C8.50534 45.0417 5.875 42.4114 5.875 39.1667V15.6667C5.875 15.1473 6.08133 14.6492 6.44858 14.2819L18.1986 2.53191ZM35.25 5.875H21.5417V15.6667C21.5417 16.7482 20.6649 17.625 19.5833 17.625H9.79167V39.1667C9.79167 40.2483 10.6685 41.125 11.75 41.125H35.25C36.3316 41.125 37.2083 40.2483 37.2083 39.1667V7.83333C37.2083 6.75179 36.3316 5.875 35.25 5.875ZM12.5612 13.7083H17.625V8.64449L12.5612 13.7083ZM13.7083 25.4583C13.7083 24.3767 14.5851 23.5 15.6667 23.5H31.3333C32.4149 23.5 33.2917 24.3767 33.2917 25.4583C33.2917 26.5399 32.4149 27.4167 31.3333 27.4167H15.6667C14.5851 27.4167 13.7083 26.5399 13.7083 25.4583ZM13.7083 33.2917C13.7083 32.2101 14.5851 31.3333 15.6667 31.3333H31.3333C32.4149 31.3333 33.2917 32.2101 33.2917 33.2917C33.2917 34.3733 32.4149 35.25 31.3333 35.25H15.6667C14.5851 35.25 13.7083 34.3733 13.7083 33.2917Z" fill="#A6A7A7"/>
</svg>
