<svg width="35" height="35" viewBox="0 0 35 35" fill="none" xmlns="http://www.w3.org/2000/svg">
<path fill-rule="evenodd" clip-rule="evenodd" d="M24.0625 10.3002C24.0625 14.9596 21.2479 18.9583 17.5 18.9583C13.7491 18.9583 10.9375 14.9596 10.9375 10.2988C10.9375 5.64083 13.3583 2.91667 17.5 2.91667C21.6416 2.91667 24.0625 5.63938 24.0625 10.3002ZM5.98204 29.3738C6.54349 30.0417 8.96141 32.0833 17.5 32.0833C26.0385 32.0833 28.455 30.0417 29.0179 29.3752C29.0701 29.3112 29.1087 29.2371 29.1312 29.1576C29.1538 29.0781 29.1599 28.9949 29.1491 28.9129C29.0208 27.6267 27.8629 21.875 17.5 21.875C7.13704 21.875 5.97912 27.6267 5.84933 28.9129C5.83877 28.9949 5.84509 29.0783 5.86791 29.1578C5.89073 29.2373 5.92957 29.3098 5.98204 29.3738Z" fill="#A6A7A7"/>
</svg>
