<svg width="43" height="43" viewBox="0 0 43 43" fill="none" xmlns="http://www.w3.org/2000/svg">
<path d="M19.8127 39.9339C20.257 40.193 20.4791 40.3226 20.7925 40.3898C21.0359 40.442 21.3907 40.442 21.6341 40.3898C21.9476 40.3226 22.1697 40.193 22.614 39.9339C26.523 37.6533 37.2667 30.4895 37.2667 20.64V9.804C37.2667 8.68442 37.2667 8.12462 37.0511 7.69796C36.8601 7.31971 36.5617 7.01779 36.1857 6.82228C35.7617 6.60174 35.1924 6.59502 34.0536 6.58156C28.0906 6.51104 24.652 6.01865 21.2133 2.58C17.7747 6.01865 14.3361 6.51104 8.37307 6.58156C7.23435 6.59502 6.66498 6.60174 6.24089 6.82228C5.86492 7.01779 5.56653 7.31971 5.3755 7.69796C5.16 8.12462 5.16 8.68442 5.16 9.804V20.64C5.16 30.4895 15.9036 37.6533 19.8127 39.9339Z" stroke="#DC5B5B" stroke-width="5" stroke-linecap="round" stroke-linejoin="round"/>
</svg>
