<svg width="29" height="29" viewBox="0 0 29 29" fill="none" xmlns="http://www.w3.org/2000/svg">
<g clip-path="url(#clip0_6_183)">
<path d="M21.9313 5.96916C21.4475 5.93835 20.9651 6.04741 20.5417 6.28332L10.0896 12.325C9.81369 12.4839 9.5719 12.6957 9.37812 12.9484C9.18433 13.201 9.04238 13.4894 8.96041 13.7971C8.87844 14.1047 8.85808 14.4255 8.90048 14.7411C8.94289 15.0567 9.04724 15.3607 9.20752 15.6358L11.02 18.7654C11.1779 19.0407 11.3885 19.2822 11.6397 19.4762C11.8909 19.6701 12.1779 19.8127 12.4842 19.8957C12.7905 19.9787 13.1102 20.0006 13.425 19.9601C13.7397 19.9196 14.0435 19.8175 14.3188 19.6596L16.4938 18.4512C16.8224 18.9913 17.3129 19.4141 17.8954 19.6596V21.75C17.8954 22.3909 18.15 23.0056 18.6033 23.4588C19.0565 23.912 19.6712 24.1667 20.3121 24.1667H26.5834V21.75H20.3121V19.6596C20.7055 19.4939 21.0591 19.2465 21.3495 18.9337C21.6399 18.6209 21.8604 18.2499 21.9964 17.8453C22.1324 17.4408 22.1808 17.0119 22.1383 16.5872C22.0958 16.1625 21.9635 15.7517 21.75 15.3821L24.8071 13.6179C25.084 13.46 25.327 13.2489 25.522 12.9967C25.7169 12.7446 25.8601 12.4563 25.9432 12.1486C26.0263 11.8408 26.0478 11.5197 26.0062 11.2037C25.9647 10.8876 25.8611 10.5829 25.7013 10.3071L23.8888 7.17749C23.6919 6.83417 23.4138 6.54444 23.0788 6.33375C22.7438 6.12306 22.3622 5.99786 21.9675 5.96916M7.51585 15.9137L2.41669 16.7596L3.32294 18.3304L5.7396 22.5112L6.64585 24.0821L9.93252 20.0946L7.51585 15.9137Z" fill="#A6A7A7"/>
</g>
<defs>
<clipPath id="clip0_6_183">
<rect width="29" height="29" fill="white"/>
</clipPath>
</defs>
</svg>
