<svg width="17" height="17" viewBox="0 0 17 17" fill="none" xmlns="http://www.w3.org/2000/svg">
<g clip-path="url(#clip0_5_160)">
<path fill-rule="evenodd" clip-rule="evenodd" d="M0 1.69924C0 0.759589 0.760668 0 1.7 0H15.3C16.2393 0 17 0.759589 17 1.69924V11.8926C17 12.8323 16.2393 13.5918 15.3 13.5918H8.68879L4.30653 16.8764C4.1348 17.0051 3.9051 17.0257 3.71316 16.9297C3.52123 16.8337 3.4 16.6376 3.4 16.4229V13.5918H1.7C0.760668 13.5918 0 12.8323 0 11.8926V1.69924ZM4.53333 4.53036H12.4667V5.6637H4.53333V4.53036ZM4.53333 7.92814H10.2V9.06147H4.53333V7.92814Z" fill="#A6A7A7"/>
</g>
<defs>
<clipPath id="clip0_5_160">
<rect width="17" height="17" fill="white"/>
</clipPath>
</defs>
</svg>
